<?xml version="1.0" standalone="no"?>
<!DOCTYPE svg PUBLIC "-//W3C//DTD SVG 20010904//EN"
 "http://www.w3.org/TR/2001/REC-SVG-20010904/DTD/svg10.dtd">
<svg version="1.0" xmlns="http://www.w3.org/2000/svg"
 width="1024.000000pt" height="1024.000000pt" viewBox="0 0 1024.000000 1024.000000"
 preserveAspectRatio="xMidYMid meet">
<metadata>
Created by potrace 1.11, written by Peter Selinger 2001-2013
</metadata>
<g transform="translate(0.000000,1024.000000) scale(0.100000,-0.100000)"
fill="#000000" stroke="none">
<path d="M2715 9779 c-693 -37 -1058 -146 -1435 -428 -272 -203 -501 -494
-633 -804 -81 -188 -151 -512 -179 -822 -19 -217 -19 -5000 0 -5215 44 -489
131 -795 312 -1092 262 -431 709 -765 1175 -878 157 -38 368 -74 530 -91 164
-17 4694 -26 5025 -10 370 18 565 44 815 107 649 164 1217 737 1374 1384 61
254 84 421 101 753 12 240 12 4569 -1 4822 -34 694 -142 1064 -422 1445 -83
113 -281 313 -392 397 -44 33 -126 87 -181 121 -333 201 -670 281 -1304 312
-245 12 -4562 11 -4785 -1z"/>
</g>
</svg>
